# Blender v2.79 (sub 0) OBJ File: 'clock.blend'
# www.blender.org
o 04_Zeiger_klein_Cylinder.002
v -0.000046 0.001600 -0.578680
v -0.000046 -0.001600 -0.578680
v 0.002349 0.001600 -0.577169
v 0.002349 -0.001600 -0.577169
v 0.004652 0.001600 -0.572693
v 0.004652 -0.001600 -0.572693
v 0.006774 0.001600 -0.565424
v 0.006774 -0.001600 -0.565424
v 0.008634 0.001600 -0.555642
v 0.008634 -0.001600 -0.555642
v 0.010160 0.001600 -0.543723
v 0.010160 -0.001600 -0.543723
v 0.020955 0.002963 -0.500956
v 0.020955 -0.002963 -0.500956
v 0.022248 0.002963 -0.473630
v 0.022248 -0.002963 -0.473630
v 0.018443 0.002410 -0.435904
v 0.018443 -0.002410 -0.435904
v 0.018088 0.002410 -0.354761
v 0.018088 -0.002410 -0.354761
v 0.036000 0.005085 -0.113585
v 0.036000 -0.005086 -0.113585
v 0.032395 0.005085 -0.021810
v 0.032395 -0.005086 -0.021810
v 0.048259 0.008904 0.003323
v 0.048259 -0.008905 0.003323
v 0.037907 0.008904 0.118911
v 0.037907 -0.008905 0.118911
v 0.026097 0.008904 0.204802
v 0.026097 -0.008905 0.204802
v 0.009781 0.006565 0.217976
v 0.009781 -0.006566 0.217976
v -0.000046 0.006565 0.231144
v -0.000046 -0.006566 0.231144
v -0.009872 0.006565 0.217976
v -0.009872 -0.006566 0.217976
v -0.026188 0.008904 0.204801
v -0.026188 -0.008905 0.204801
v -0.037998 0.008904 0.118911
v -0.037998 -0.008905 0.118911
v -0.048350 0.008904 0.003322
v -0.048350 -0.008905 0.003322
v -0.032486 0.005085 -0.021811
v -0.032486 -0.005086 -0.021811
v -0.036091 0.005085 -0.113585
v -0.036091 -0.005086 -0.113585
v -0.018179 0.002410 -0.354761
v -0.018179 -0.002410 -0.354761
v -0.018534 0.002410 -0.435904
v -0.018534 -0.002410 -0.435904
v -0.022339 0.002963 -0.473631
v -0.022339 -0.002963 -0.473631
v -0.021046 0.002963 -0.500956
v -0.021046 -0.002963 -0.500956
v -0.010251 0.001600 -0.543723
v -0.010251 -0.001600 -0.543723
v -0.008725 0.001600 -0.555642
v -0.008725 -0.001600 -0.555642
v -0.006865 0.001600 -0.565424
v -0.006865 -0.001600 -0.565424
v -0.004743 0.001600 -0.572693
v -0.004743 -0.001600 -0.572693
v -0.002440 0.001600 -0.577169
v -0.002440 -0.001600 -0.577169
v 0.036897 0.006810 0.028184
v 0.036897 -0.006810 0.028184
v 0.028980 0.006810 0.116583
v 0.028980 -0.006810 0.116583
v 0.019947 0.006810 0.182269
v 0.019947 -0.006810 0.182269
v 0.010147 0.006810 0.222718
v 0.010147 -0.006810 0.222718
v -0.000046 0.006810 0.236376
v -0.000046 -0.006810 0.236376
v -0.010238 0.006810 0.222718
v -0.010238 -0.006810 0.222718
v -0.020038 0.006810 0.182269
v -0.020038 -0.006810 0.182269
v -0.029071 0.006810 0.116582
v -0.029071 -0.006810 0.116582
v -0.036988 0.006810 0.028183
v -0.036988 -0.006810 0.028183
vn 0.5338 0.0000 -0.8456
vn 0.8892 0.0000 -0.4574
vn 0.9599 0.0000 -0.2802
vn 0.9824 0.0000 -0.1868
vn 0.9919 0.0000 -0.1270
vn 0.9696 0.0000 -0.2447
vn 0.9989 0.0000 -0.0473
vn 0.9950 0.0000 0.1004
vn 1.0000 0.0000 0.0044
vn 0.9973 0.0000 -0.0741
vn 0.9992 0.0000 0.0393
vn 0.8456 0.0000 -0.5338
vn 0.9960 0.0000 0.0892
vn 0.9907 0.0000 0.1362
vn 0.6282 0.0000 0.7780
vn 0.8014 0.0000 0.5981
vn -0.8014 0.0000 0.5981
vn -0.6283 0.0000 0.7780
vn -0.9907 0.0000 0.1362
vn -0.9960 0.0000 0.0892
vn -0.8456 0.0000 -0.5338
vn -0.9992 0.0000 0.0393
vn -0.9973 0.0000 -0.0741
vn -1.0000 0.0000 0.0044
vn -0.9950 0.0000 0.1004
vn -0.9989 0.0000 -0.0473
vn -0.9696 0.0000 -0.2447
vn -0.9919 0.0000 -0.1270
vn -0.9824 0.0000 -0.1868
vn -0.9599 0.0000 -0.2802
vn 0.0000 -1.0000 -0.0087
vn -0.8892 0.0000 -0.4574
vn -0.5338 0.0000 -0.8456
vn 0.0000 1.0000 -0.0087
vn -0.9970 0.0000 -0.0768
vn 0.1787 0.9829 0.0441
vn -0.2234 0.9745 0.0200
vn 0.2234 -0.9745 0.0200
vn -0.1787 -0.9829 0.0441
vn -0.9970 0.0000 0.0768
vn -0.9095 0.0000 0.4157
vn 0.2234 0.9745 0.0200
vn -0.1787 0.9829 0.0441
vn -0.0624 0.9970 -0.0465
vn 0.2524 0.0000 -0.9676
vn 0.9647 0.0000 0.2633
vn -0.0624 -0.9970 -0.0465
vn 0.2208 -0.9748 0.0304
vn -0.2208 -0.9748 0.0304
vn -1.0000 0.0000 0.0000
vn 0.2208 0.9748 0.0304
vn -0.2208 0.9748 0.0304
vn 0.0624 0.9970 -0.0465
vn 0.9647 0.0000 -0.2633
vn 0.2524 0.0000 0.9676
vn 0.0624 -0.9970 -0.0465
vn 0.1787 -0.9829 0.0441
vn -0.2234 -0.9745 0.0200
vn -0.9095 0.0000 -0.4157
s off
f 1//1 3//1 4//1 2//1
f 3//2 5//2 6//2 4//2
f 5//3 7//3 8//3 6//3
f 7//4 9//4 10//4 8//4
f 9//5 11//5 12//5 10//5
f 11//6 13//6 14//6 12//6
f 13//7 15//7 16//7 14//7
f 15//8 17//8 18//8 16//8
f 17//9 19//9 20//9 18//9
f 19//10 21//10 22//10 20//10
f 21//11 23//11 24//11 22//11
f 23//12 25//12 26//12 24//12
f 25//13 27//13 28//13 26//13
f 27//14 29//14 30//14 28//14
f 29//15 31//15 32//15 30//15
f 31//16 33//16 34//16 32//16
f 33//17 35//17 36//17 34//17
f 35//18 37//18 38//18 36//18
f 37//19 39//19 40//19 38//19
f 39//20 41//20 42//20 40//20
f 41//21 43//21 44//21 42//21
f 43//22 45//22 46//22 44//22
f 45//23 47//23 48//23 46//23
f 47//24 49//24 50//24 48//24
f 49//25 51//25 52//25 50//25
f 51//26 53//26 54//26 52//26
f 53//27 55//27 56//27 54//27
f 55//28 57//28 58//28 56//28
f 57//29 59//29 60//29 58//29
f 59//30 61//30 62//30 60//30
f 4//31 6//31 8//31 10//31 12//31 14//31 16//31 18//31 20//31 22//31 24//31 26//31 28//31 30//31 32//31 34//31 36//31 38//31 40//31 42//31 44//31 46//31 48//31 50//31 52//31 54//31 56//31 58//31 60//31 62//31 64//31 2//31
f 61//32 63//32 64//32 62//32
f 63//33 1//33 2//33 64//33
f 1//34 63//34 61//34 59//34 57//34 55//34 53//34 51//34 49//34 47//34 45//34 43//34 41//34 39//34 37//34 35//34 33//34 31//34 29//34 27//34 25//34 23//34 21//34 19//34 17//34 15//34 13//34 11//34 9//34 7//34 5//34 3//34
f 36//35 76//35 75//35 35//35
f 30//36 70//36 72//36 32//36
f 40//37 80//37 82//37 42//37
f 27//38 67//38 65//38 25//38
f 37//39 77//39 75//39 35//39
f 32//40 72//40 71//40 31//40
f 42//41 82//41 81//41 41//41
f 26//42 66//42 68//42 28//42
f 36//43 76//43 78//43 38//43
f 33//44 73//44 71//44 31//44
f 28//45 68//45 67//45 27//45
f 38//46 78//46 77//46 37//46
f 32//47 72//47 74//47 34//47
f 29//48 69//48 67//48 27//48
f 39//49 79//49 77//49 37//49
f 34//50 74//50 73//50 33//50
f 28//51 68//51 70//51 30//51
f 38//52 78//52 80//52 40//52
f 35//53 75//53 73//53 33//53
f 30//54 70//54 69//54 29//54
f 40//55 80//55 79//55 39//55
f 34//56 74//56 76//56 36//56
f 31//57 71//57 69//57 29//57
f 41//58 81//58 79//58 39//58
f 26//59 66//59 65//59 25//59
