# Blender v2.79 (sub 0) OBJ File: ''
# www.blender.org
o group_0_6383466
v 1.301081 -0.802624 0.032998
v 1.301081 -0.708344 0.032998
v 1.223301 -0.708344 0.032998
v 1.223301 -0.635729 -0.000000
v 1.223301 -0.599922 -0.000000
v 1.317580 -0.675346 -0.000000
v 1.301081 -0.018856 0.032998
v 1.301081 -0.255800 0.032998
v 1.317580 -0.018856 -0.000000
v 1.317580 -0.298226 -0.000000
v -0.113136 -0.675346 -0.000000
v -0.096637 -0.632920 0.032998
v -0.113136 -0.449074 -0.000000
v -0.096637 -0.406648 0.032998
v -0.104462 -0.390979 0.017329
v -0.113136 -0.373650 -0.000000
v -0.096637 -0.331224 0.032998
v -0.113136 -0.802624 -0.000000
v 1.317580 -0.802624 -0.000000
v -0.096637 -0.802624 0.032998
v -0.018856 -0.635729 -0.000000
v -0.018856 -0.675346 -0.000000
v 1.223301 -0.517879 0.032998
v -0.018856 -0.482072 0.032998
v -0.018856 -0.517879 0.032998
v -0.018856 -0.593303 0.032998
v -0.018856 -0.632920 0.032998
v -0.018856 -0.599922 -0.000000
v -0.018856 -0.560305 -0.000000
v -0.018856 -0.442456 0.032998
v -0.018856 -0.449074 -0.000000
v -0.018856 -0.557496 0.032998
v -0.018856 -0.524498 -0.000000
v -0.018856 -0.484882 -0.000000
v 1.223301 -0.593303 0.032998
v 1.223301 -0.560305 -0.000000
v 1.223301 -0.632920 0.032998
v 1.223301 -0.442456 0.032998
v 1.223301 -0.409458 -0.000000
v 1.223301 -0.449074 -0.000000
v 1.223301 -0.482072 0.032998
v 1.223301 -0.484882 -0.000000
v 1.223301 -0.524498 -0.000000
v 1.223301 -0.557496 0.032998
v 1.223301 -0.367032 0.032998
v 1.223301 -0.334034 -0.000000
v 1.223301 -0.373650 -0.000000
v 1.223301 -0.406648 0.032998
v -0.018856 -0.107762 -0.000000
v -0.113136 -0.018856 -0.000000
v 1.223301 -0.675346 -0.000000
v -0.096637 -0.018856 0.032998
v -0.113136 -0.298226 -0.000000
v -0.018856 -0.147378 -0.000000
v -0.096637 -0.708344 0.032998
v -0.110571 -0.680493 0.005148
v 1.223301 -0.140760 0.032998
v -0.018856 -0.183186 -0.000000
v -0.018856 -0.222802 -0.000000
v 1.223301 -0.668727 0.032998
v 1.301081 -0.632920 0.032998
v -0.018856 -0.708344 0.032998
v 1.301081 -0.406648 0.032998
v 1.301081 -0.331224 0.032998
v 1.223301 -0.291608 0.032998
v 1.223301 -0.331224 0.032998
v 1.223301 -0.255800 0.032998
v 1.223301 -0.216184 0.032998
v -0.018856 -0.668727 0.032998
v -0.018856 -0.258610 -0.000000
v -0.018856 -0.298226 -0.000000
v -0.018856 -0.334034 -0.000000
v -0.018856 -0.180376 0.032998
v -0.018856 -0.140760 0.032998
v -0.096637 -0.255800 0.032998
v -0.018856 -0.216184 0.032998
v 1.223301 -0.180376 0.032998
v -0.018856 -0.255800 0.032998
v -0.018856 -0.291608 0.032998
v -0.018856 -0.373650 -0.000000
v -0.018856 -0.409458 -0.000000
v -0.018856 -0.406648 0.032998
v -0.018856 -0.331224 0.032998
v -0.018856 -0.367032 0.032998
v 1.307398 -0.318609 0.020383
v 1.223301 -0.183186 -0.000000
v 1.301081 -0.482072 0.032998
v 1.223301 -0.222802 -0.000000
v 1.317580 -0.373650 -0.000000
v 1.308926 -0.390979 0.017329
v 1.223301 -0.298226 -0.000000
v 1.310453 -0.463367 0.014293
v 1.317580 -0.449074 -0.000000
v 1.223301 -0.258610 -0.000000
v 1.315016 -0.680493 0.005148
v 1.317580 -0.524498 -0.000000
v 1.223301 -0.147378 -0.000000
v 1.223301 -0.107762 -0.000000
v -0.102954 -0.318609 0.020383
vn 0.4183 -0.6057 0.6768
vn 0.5256 0.0000 0.8507
vn -0.1313 0.1857 0.9738
vn -0.1313 -0.1857 -0.9738
vn -0.5301 0.2499 -0.8103
vn 0.8504 0.0003 -0.5260
vn 0.4183 0.6057 0.6768
vn 0.5257 0.0000 0.8506
vn 0.7066 0.5568 -0.4367
vn 0.8506 0.0001 -0.5258
vn -0.8504 0.0003 -0.5260
vn -0.5257 0.0000 0.8506
vn -0.8506 0.0000 -0.5257
vn -0.5258 0.0001 0.8506
vn -0.8944 0.0000 0.4472
vn -0.8507 -0.0001 -0.5256
vn -0.5256 -0.0001 0.8507
vn -0.7066 -0.5568 -0.4367
vn 0.7066 -0.5568 -0.4367
vn -0.4183 -0.6057 0.6768
vn 0.1313 -0.1857 -0.9738
vn 0.5301 0.2499 -0.8103
vn -0.5301 -0.2499 0.8103
vn 0.1313 0.1857 0.9738
vn 0.5301 -0.2499 0.8103
vn -0.7066 0.5568 -0.4367
vn -0.4183 0.6057 0.6768
vn -0.8506 0.0001 -0.5258
vn -0.5256 0.0000 0.8507
vn -0.8947 0.0001 0.4466
vn 0.5256 -0.0001 0.8507
vn 0.8943 0.0000 0.4473
vn 0.5255 -0.0001 0.8508
vn 0.8944 0.0000 0.4472
vn 0.8945 0.0000 0.4471
vn 0.8505 0.0002 -0.5260
vn 0.8947 0.0001 0.4467
vn 0.8506 -0.0000 -0.5257
vn -0.8943 0.0000 0.4473
s 1
f 1//1 2//2 3//3
f 4//4 5//5 6//6
f 7//7 8//8 9//9
f 10//10 9//9 8//8
f 11//11 12//12 13//13
f 13//13 14//14 15//15
f 16//16 13//13 15//15
f 15//15 14//14 17//17
f 16//16 15//15 17//17
f 18//18 19//19 20//20
f 1//1 20//20 19//19
f 4//4 21//21 5//5
f 21//21 22//22 11//11
f 18//18 11//11 22//22
f 23//23 24//24 25//25
f 26//25 27//24 28//22
f 29//21 26//25 28//22
f 30//25 24//24 31//22
f 32//24 33//22 25//25
f 34//21 25//25 33//22
f 35//23 36//4 5//5
f 35//23 5//5 37//3
f 38//23 39//4 40//5
f 38//23 40//5 41//3
f 23//23 42//4 43//5
f 23//23 43//5 44//3
f 45//23 46//4 47//5
f 45//23 47//5 48//3
f 9//9 49//21 50//26
f 51//5 19//19 22//22
f 18//18 22//22 19//19
f 9//9 50//26 7//7
f 52//27 7//7 50//26
f 53//28 50//26 54//22
f 55//29 56//30 18//18
f 7//7 57//23 8//8
f 54//22 58//21 53//28
f 53//28 58//21 59//22
f 56//30 11//11 18//18
f 55//29 12//12 56//30
f 12//12 11//11 56//30
f 55//29 18//18 20//20
f 37//3 60//23 61//8
f 14//14 13//13 12//12
f 20//20 1//1 62//24
f 3//3 62//24 1//1
f 27//24 60//23 37//3
f 37//3 61//8 35//23
f 60//23 3//3 2//2
f 2//2 61//8 60//23
f 63//2 64//31 45//23
f 65//23 66//3 64//31
f 67//3 65//23 8//8
f 68//23 67//3 8//8
f 21//21 60//23 69//25
f 59//22 70//21 53//28
f 70//21 71//22 53//28
f 71//22 72//21 53//28
f 73//24 74//25 75//12
f 49//21 54//22 50//26
f 76//25 68//23 73//24
f 77//3 73//24 68//23
f 21//21 69//25 22//22
f 62//24 22//22 69//25
f 42//4 34//21 31//22
f 73//24 75//12 76//25
f 78//24 76//25 75//12
f 57//23 7//7 74//25
f 79//25 65//23 78//24
f 67//3 78//24 65//23
f 44//3 43//5 32//24
f 16//16 53//28 72//21
f 77//3 8//8 57//23
f 68//23 8//8 77//3
f 64//31 8//8 65//23
f 66//3 45//23 64//31
f 45//23 48//3 63//2
f 78//24 75//12 79//25
f 79//25 75//12 17//17
f 80//22 81//21 16//16
f 52//27 75//12 74//25
f 7//7 52//27 74//25
f 44//3 32//24 35//23
f 48//3 82//24 30//25
f 48//3 30//25 38//23
f 23//23 41//3 24//24
f 66//3 83//24 84//25
f 26//25 32//24 12//12
f 81//21 39//4 38//23
f 17//17 14//14 84//25
f 83//24 17//17 84//25
f 79//25 17//17 83//24
f 82//24 84//25 14//14
f 30//25 82//24 14//14
f 10//10 8//8 85//32
f 58//21 86//4 68//23
f 48//3 38//23 63//2
f 87//33 63//2 38//23
f 38//23 41//3 87//33
f 41//3 23//23 87//33
f 23//23 44//3 87//33
f 61//8 87//33 44//3
f 35//23 61//8 44//3
f 51//5 22//22 3//3
f 62//24 3//3 22//22
f 88//5 59//22 67//3
f 21//21 4//4 60//23
f 26//25 35//23 32//24
f 47//5 80//22 48//3
f 45//23 84//25 72//21
f 32//24 25//25 12//12
f 14//14 12//12 25//25
f 24//24 14//14 25//25
f 30//25 14//14 24//24
f 8//8 64//31 85//32
f 89//10 64//31 90//34
f 66//3 91//5 71//22
f 64//31 63//2 90//34
f 27//24 69//25 60//23
f 63//2 92//35 93//36
f 70//21 94//4 65//23
f 87//33 92//35 63//2
f 69//25 27//24 12//12
f 27//24 26//25 12//12
f 12//12 55//29 69//25
f 62//24 69//25 55//29
f 20//20 62//24 55//29
f 84//25 45//23 66//3
f 1//1 19//19 2//2
f 93//36 90//34 63//2
f 19//19 95//37 2//2
f 13//13 16//16 81//21
f 80//22 16//16 72//21
f 31//22 13//13 81//21
f 34//21 13//13 31//22
f 87//33 61//8 96//38
f 6//6 96//38 61//8
f 28//22 5//5 21//21
f 95//37 6//6 61//8
f 60//23 4//4 51//5
f 60//23 51//5 3//3
f 61//8 2//2 95//37
f 19//19 6//6 95//37
f 87//33 96//38 92//35
f 96//38 93//36 92//35
f 28//22 27//24 5//5
f 37//3 5//5 27//24
f 34//21 33//22 13//13
f 33//22 29//21 13//13
f 11//11 13//13 29//21
f 11//11 29//21 28//22
f 11//11 28//22 21//21
f 97//5 54//22 77//3
f 93//36 89//10 90//34
f 89//10 85//32 64//31
f 89//10 10//10 85//32
f 34//21 42//4 25//25
f 23//23 25//25 42//4
f 49//21 98//4 74//25
f 57//23 74//25 98//4
f 57//23 98//4 97//5
f 57//23 97//5 77//3
f 68//23 86//4 88//5
f 68//23 88//5 67//3
f 36//4 43//5 96//38
f 65//23 94//4 91//5
f 66//3 65//23 91//5
f 96//38 6//6 5//5
f 26//25 29//21 35//23
f 35//23 29//21 36//4
f 24//24 41//3 31//22
f 40//5 31//22 41//3
f 91//5 94//4 10//10
f 88//5 86//4 10//10
f 89//10 46//4 10//10
f 51//5 4//4 6//6
f 19//19 51//5 6//6
f 33//22 32//24 43//5
f 54//22 97//5 86//4
f 49//21 9//9 98//4
f 45//23 72//21 46//4
f 88//5 10//10 94//4
f 86//4 97//5 10//10
f 9//9 10//10 97//5
f 98//4 9//9 97//5
f 5//5 36//4 96//38
f 74//25 73//24 54//22
f 74//25 54//22 49//21
f 36//4 29//21 43//5
f 31//22 40//5 42//4
f 77//3 54//22 73//24
f 68//23 76//25 58//21
f 72//21 91//5 46//4
f 78//24 59//22 76//25
f 58//21 76//25 59//22
f 43//5 42//4 96//38
f 93//36 96//38 42//4
f 42//4 40//5 93//36
f 40//5 39//4 93//36
f 39//4 47//5 89//10
f 47//5 46//4 89//10
f 91//5 10//10 46//4
f 89//10 93//36 39//4
f 67//3 59//22 78//24
f 75//12 99//39 17//17
f 33//22 43//5 29//21
f 75//12 53//28 99//39
f 83//24 66//3 71//22
f 54//22 86//4 58//21
f 70//21 65//23 79//25
f 81//21 80//22 39//4
f 47//5 39//4 80//22
f 70//21 79//25 71//22
f 91//5 72//21 71//22
f 53//28 16//16 99//39
f 70//21 59//22 94//4
f 88//5 94//4 59//22
f 53//28 75//12 50//26
f 52//27 50//26 75//12
f 38//23 30//25 81//21
f 82//24 48//3 80//22
f 81//21 30//25 31//22
f 82//24 80//22 84//25
f 72//21 84//25 80//22
f 79//25 83//24 71//22
f 99//39 16//16 17//17
