# Blender v2.79 (sub 0) OBJ File: 'spot.blend'
# www.blender.org
mtllib spot.mtl
o Cube_Cube.001
v 0.848554 0.441911 -0.762151
v 1.000000 1.000000 1.000000
v 1.000000 1.000000 -1.000000
v -1.000000 1.000000 -1.000000
v -1.000000 1.000000 -1.000000
v 1.000000 1.000000 1.000000
v 1.000000 -1.000000 -1.000000
v 1.000000 1.000000 -1.000000
v 0.149532 0.441911 -0.762151
v 0.848554 0.441911 -0.063129
v -1.000000 1.000000 -1.010446
v 1.000000 1.000000 -1.010446
v 1.000000 -1.000000 -1.010446
v 1.010446 -1.000000 -1.000000
v 1.010446 1.000000 -1.000000
v 1.010446 1.000000 1.000000
v -0.674493 0.872977 -1.011991
v 0.944439 0.872977 -1.011991
v 0.944439 -0.745955 -1.011991
v 1.011991 -0.745955 -0.944439
v 1.011991 0.872977 -0.944439
v 1.011991 0.872977 0.674493
v -0.390833 0.764311 -0.997236
v 0.902100 0.764311 -0.997236
v 0.902100 -0.528622 -0.997236
v 0.997236 -0.528622 -0.902100
v 0.997236 0.764311 -0.902100
v 0.997236 0.764311 0.390833
v 0.824810 0.739990 -1.057063
v -0.468123 0.739990 -1.057063
v 0.824810 -0.552943 -1.057063
v 1.056217 0.735778 -0.862567
v 1.056217 -0.557155 -0.862567
v 1.056217 0.735778 0.430366
v 0.872515 1.114813 -0.863703
v 0.872515 1.114813 0.812522
v 1.000000 1.000000 -1.000000
v 1.000000 1.000000 -1.010446
v 1.010446 1.000000 -1.000000
v -0.803710 1.114813 -0.863703
v -0.803710 1.114813 -0.872458
v 0.872515 1.114813 -0.872458
v 0.881270 1.114813 -0.863703
v 0.881270 1.114813 0.812522
vn -0.5774 -0.5774 0.5774
vn 0.0000 0.0122 -0.9999
vn 0.0000 -0.1345 -0.9909
vn 0.0000 0.0000 1.0000
vn 0.0000 1.0000 0.0000
vn 0.0000 0.3921 0.9199
vn 0.4628 0.7560 -0.4628
vn -0.9651 0.2619 0.0000
vn 1.0000 0.0000 0.0000
vn -0.7071 -0.7071 0.0000
vn 0.6121 0.0000 -0.7908
vn 0.0000 0.0000 -1.0000
vn 0.0000 -0.7071 0.7071
vn 0.0278 0.0000 -0.9996
vn -0.0078 -0.0078 -0.9999
vn 0.9996 0.0000 -0.0278
vn 0.9999 0.0122 0.0000
vn 0.9999 -0.0078 0.0078
vn -0.3291 0.0000 -0.9443
vn 0.0837 0.0837 -0.9930
vn 0.4355 0.9002 0.0000
vn 0.9443 0.0000 0.3291
vn 0.9909 -0.1345 0.0000
vn 0.9930 0.0837 -0.0837
vn -0.6322 -0.5478 0.5478
vn 0.5568 0.0000 -0.8307
vn -0.4525 -0.4525 0.7685
vn 0.0000 0.9264 -0.3766
vn 0.0000 -0.7687 0.6396
vn 0.0000 0.7648 -0.6443
vn 0.6643 0.7474 0.0000
vn 0.6692 0.7431 0.0000
usemtl None
s off
f 4//1 7//1 6//1
f 12//2 17//2 11//2
f 18//3 23//3 17//3
f 6//4 5//4 4//4
f 1//5 9//5 10//5
f 4//4 3//4 8//4
f 8//4 2//4 6//4
f 9//6 3//6 5//6
f 2//7 9//7 5//7
f 3//8 10//8 2//8
f 12//5 4//5 8//5
f 13//9 8//9 7//9
f 11//10 7//10 4//10
f 25//11 29//11 24//11
f 15//12 7//12 8//12
f 16//5 8//5 6//5
f 14//13 6//13 7//13
f 19//14 12//14 13//14
f 17//15 13//15 11//15
f 15//16 20//16 14//16
f 22//17 15//17 16//17
f 14//18 22//18 16//18
f 25//19 18//19 19//19
f 23//20 19//20 17//20
f 28//21 32//21 27//21
f 21//22 26//22 20//22
f 28//23 21//23 22//23
f 20//24 28//24 22//24
f 30//12 29//12 31//12
f 33//9 32//9 34//9
f 28//25 33//25 34//25
f 26//26 32//26 33//26
f 23//27 31//27 25//27
f 23//28 29//28 30//28
f 12//29 41//29 11//29
f 8//4 39//4 37//4
f 8//4 38//4 37//4
f 8//30 40//30 35//30
f 15//31 44//31 16//31
f 8//32 36//32 6//32
f 12//2 18//2 17//2
f 18//3 24//3 23//3
f 6//4 2//4 5//4
f 4//4 5//4 3//4
f 8//4 3//4 2//4
f 9//6 1//6 3//6
f 2//7 10//7 9//7
f 3//8 1//8 10//8
f 12//5 11//5 4//5
f 13//9 12//9 8//9
f 11//10 13//10 7//10
f 25//11 31//11 29//11
f 15//12 14//12 7//12
f 16//5 15//5 8//5
f 14//13 16//13 6//13
f 19//14 18//14 12//14
f 17//15 19//15 13//15
f 15//16 21//16 20//16
f 22//17 21//17 15//17
f 14//18 20//18 22//18
f 25//19 24//19 18//19
f 23//20 25//20 19//20
f 28//21 34//21 32//21
f 21//22 27//22 26//22
f 28//23 27//23 21//23
f 20//24 26//24 28//24
f 28//25 26//25 33//25
f 26//26 27//26 32//26
f 23//27 30//27 31//27
f 23//28 24//28 29//28
f 12//29 42//29 41//29
f 8//4 15//4 39//4
f 8//4 12//4 38//4
f 8//30 4//30 40//30
f 15//31 43//31 44//31
f 8//32 35//32 36//32
